<svg width="28" height="28" viewBox="0 0 28 28" fill="none" xmlns="http://www.w3.org/2000/svg">
<path d="M23.4526 7.75C23.5197 7.36692 23.5022 6.97379 23.4012 6.59821C23.3003 6.22262 23.1183 5.87369 22.8682 5.57589C22.618 5.2781 22.3057 5.03866 21.9532 4.87439C21.6007 4.71012 21.2165 4.625 20.8276 4.625H7.17257C6.78365 4.625 6.39945 4.71012 6.04693 4.87439C5.69441 5.03866 5.38211 5.2781 5.13196 5.57589C4.88182 5.87369 4.69988 6.22262 4.59892 6.59821C4.49797 6.97379 4.48044 7.36692 4.54757 7.75M20.8751 4.625C20.9101 4.3 20.9288 4.13875 20.9288 4.005C20.9302 3.38712 20.7027 2.79062 20.2902 2.33058C19.8777 1.87054 19.3094 1.57955 18.6951 1.51375C18.5626 1.5 18.4001 1.5 18.0751 1.5H9.92507C9.60007 1.5 9.43632 1.5 9.30382 1.51375C8.68945 1.57955 8.12121 1.87054 7.70872 2.33058C7.29623 2.79062 7.06872 3.38712 7.07007 4.005C7.07007 4.13875 7.08757 4.30125 7.12382 4.625" stroke="#5061F7" stroke-width="1.5"/>
<path d="M17.75 21.5H10.25M25.4925 19.9912C25.055 23.0912 24.8363 24.6425 23.715 25.5713C22.5938 26.5 20.94 26.5 17.6313 26.5H10.3688C7.0613 26.5 5.4063 26.5 4.28505 25.5713C3.1638 24.6425 2.94505 23.0925 2.50755 19.9912L1.98005 16.2413C1.4213 12.2863 1.14255 10.31 2.32755 9.02875C3.51255 7.75 5.62254 7.75 9.84004 7.75H18.16C22.3775 7.75 24.4875 7.75 25.6725 9.03C26.6088 10.0413 26.6313 11.4875 26.3238 14" stroke="#5061F7" stroke-width="2" stroke-linecap="round"/>
</svg>
