<svg width="240" height="61" viewBox="0 0 240 61" fill="none" xmlns="http://www.w3.org/2000/svg">
<path opacity="0.971" fill-rule="evenodd" clip-rule="evenodd" d="M62.5025 1.42163C68.3051 1.38401 73.8664 2.50406 79.187 4.7818C78.2981 7.81154 77.3571 10.8271 76.3634 13.8284C74.0658 13.0717 71.7557 12.3393 69.4329 11.6314C66.3222 10.7023 63.242 10.7884 60.1923 11.8899C56.6295 13.7575 54.6189 16.7299 54.1602 20.8072C53.989 27.0967 53.989 33.3864 54.1602 39.6759C55.3104 46.9483 59.5457 50.2656 66.8661 49.6271C68.2537 49.4682 69.6226 49.2097 70.9731 48.8517C72.9377 48.1779 74.9057 47.5317 76.8768 46.9132C77.739 49.7331 78.6803 52.5332 79.7003 55.3136C77.1458 56.7693 74.4077 57.8032 71.4864 58.4153C64.8504 60.0558 58.5187 59.2804 52.4918 56.089C47.3319 52.2062 44.4658 46.9938 43.8928 40.4513C43.8446 34.9311 43.7162 29.4168 43.5078 23.9089C43.5132 18.6385 44.925 13.7275 47.7431 9.17587C51.5135 4.36969 56.4334 1.78495 62.5025 1.42163Z" fill="#3243DF"/>
<path opacity="0.98" fill-rule="evenodd" clip-rule="evenodd" d="M2.43848 2.45551C12.9625 2.45551 23.4866 2.45551 34.0107 2.45551C34.0107 5.64335 34.0107 8.83122 34.0107 12.0191C26.8235 12.0191 19.6363 12.0191 12.4492 12.0191C12.4492 16.4131 12.4492 20.8072 12.4492 25.2013C18.8663 25.2013 25.2834 25.2013 31.7005 25.2013C31.7005 28.389 31.7005 31.5771 31.7005 34.7648C25.2834 34.7648 18.8663 34.7648 12.4492 34.7648C12.4492 39.4174 12.4492 44.0699 12.4492 48.7225C19.893 48.7225 27.3369 48.7225 34.7807 48.7225C34.7807 51.9102 34.7807 55.0982 34.7807 58.286C24 58.286 13.2192 58.286 2.43848 58.286C2.43848 39.6758 2.43848 21.0657 2.43848 2.45551Z" fill="#3243DF"/>
<path opacity="0.98" fill-rule="evenodd" clip-rule="evenodd" d="M89.7109 2.45551C93.0478 2.45551 96.3847 2.45551 99.7216 2.45551C99.7216 10.0374 99.7216 17.6194 99.7216 25.2013C106.567 25.2013 113.411 25.2013 120.256 25.2013C120.256 17.6194 120.256 10.0374 120.256 2.45551C123.593 2.45551 126.93 2.45551 130.267 2.45551C130.267 21.0657 130.267 39.6758 130.267 58.286C126.93 58.286 123.593 58.286 120.256 58.286C120.256 50.4457 120.256 42.6051 120.256 34.7648C113.411 34.7648 106.567 34.7648 99.7216 34.7648C99.7216 42.6051 99.7216 50.4457 99.7216 58.286C96.3847 58.286 93.0478 58.286 89.7109 58.286C89.7109 39.6758 89.7109 21.0657 89.7109 2.45551Z" fill="#3243DF"/>
<path opacity="0.984" fill-rule="evenodd" clip-rule="evenodd" d="M160.167 1.29236C178.007 1.63303 195.846 1.63303 213.686 1.29236C226.443 1.73151 233.374 8.36577 234.477 21.1949C234.714 28.0088 234.629 34.8152 234.221 41.6144C232.153 53.0865 225.308 58.9454 213.686 59.1907C196.231 58.8461 178.777 58.8461 161.322 59.1907C149.551 58.956 142.706 53.0111 140.787 41.3559C140.388 34.7276 140.302 28.0933 140.531 21.4534C141.383 9.00782 147.928 2.28749 160.167 1.29236ZM159.91 10.8559C168.843 10.8402 177.784 21.1749 186.734 21.1949C196.179 21.216 205.633 10.9242 215.098 10.9852C219.609 11.4781 222.476 13.9336 223.696 18.3517C223.931 19.4618 224.102 20.5818 224.21 21.7118C224.381 27.4844 224.381 33.2571 224.21 39.0296C224.073 42.8825 222.49 45.941 219.461 48.2055C218.07 48.8447 216.616 49.2756 215.098 49.4979C205.633 49.5628 196.178 39.0092 186.734 39.0296C178.255 39.048 169.784 49.6447 161.322 49.6271C155.313 49.4351 151.89 46.3334 151.055 40.322C150.544 33.43 150.544 26.5373 151.055 19.6441C151.96 14.5534 154.912 11.6241 159.91 10.8559Z" fill="url(#paint0_linear_18_441)"/>
<defs>
<linearGradient id="paint0_linear_18_441" x1="140.406" y1="30.2415" x2="234.608" y2="30.2415" gradientUnits="userSpaceOnUse">
<stop stop-color="#3243DF"/>
<stop offset="0.778846" stop-color="#7D32DF"/>
</linearGradient>
</defs>
</svg>
